<svg width="115" height="115" viewBox="0 0 115 115" fill="none" xmlns="http://www.w3.org/2000/svg">
<path d="M58.084 113.922C27.0205 114.034 1.45996 88.1816 2.22363 56.5342C2.94238 26.459 27.874 1.59473 58.8701 1.9541C89.5742 2.31348 114.91 27.874 114.124 59.4092C113.383 89.3945 88.6533 114.102 58.084 113.922ZM51.6601 87.0811C48.9199 86.2051 46.1348 85.5537 43.5742 84.4082C38.3633 82.0723 35.0615 78.0293 34.0059 72.3467C33.332 68.6631 33.6016 64.957 34.0508 61.2734C34.4551 58.0166 35.3984 54.9844 37.8691 52.626C38.0488 52.4463 38.0713 51.9297 37.959 51.6602C36.7685 48.4033 36.9033 45.1465 37.8691 41.8447C38.1611 40.8564 38.6328 40.7441 39.4863 41.0137C41.7324 41.71 43.5518 43.0576 45.1016 44.7646C45.9326 45.6631 46.6738 46.6514 47.46 47.5947C52.1318 44.5625 65.4961 44.5625 70.3926 47.5498C71.3359 46.4492 72.2344 45.3037 73.2451 44.248C74.75 42.6982 76.5019 41.5078 78.6357 40.9238C79.332 40.7217 79.7139 40.8789 79.9609 41.6201C81.0615 44.877 81.2637 48.1338 79.9609 51.3906C79.7139 52.042 79.7363 52.4687 80.2529 52.9629C81.8027 54.4453 82.7461 56.3096 83.2402 58.3984C84.1836 62.2842 84.3857 66.2598 84.1162 70.2129C83.8242 74.458 82.2295 78.1865 79.1074 81.1738C76.4795 83.667 73.335 85.1494 69.876 86.0254C68.6182 86.3398 67.3603 86.5645 66.0127 86.834C67.7422 89.4844 68.1689 92.3594 68.1016 95.3691C68.0342 98.5811 68.0791 101.815 68.0791 105.027C68.0791 105.409 68.1016 105.813 68.124 106.218C88.6309 102.489 109.34 82.0723 107.071 53.7939C104.937 26.8184 81.0615 6.10938 53.4346 8.75977C27.6269 11.2305 6.91796 34.2529 9.2539 62.1494C11.4775 88.541 32.8603 104.354 49.5937 106.42C49.5937 104.511 49.5937 102.602 49.5937 100.67C48.6728 100.805 47.8418 100.917 47.0332 101.007C41.0137 101.681 36.2295 98.9853 33.5566 93.6172C32.0967 90.6748 30.5469 87.7324 27.6719 85.8457C27.3574 85.6436 27.1777 85.2617 26.9082 84.9248C27.1553 84.7451 27.2676 84.6553 27.4023 84.5879C27.582 84.5205 27.7617 84.498 27.9414 84.4756C29.9629 84.3408 31.8721 84.7002 33.3769 86.1152C34.3652 87.0361 35.2637 88.1367 36.0049 89.2822C38.835 93.707 43.709 95.5713 48.6728 94.0889C49.3467 93.8867 49.7285 93.5947 49.7959 92.8086C49.9307 90.6973 50.5146 88.6982 51.6601 87.0811Z" fill="#777575"/>
</svg>
