<svg width="115" height="115" viewBox="0 0 115 115" fill="none" xmlns="http://www.w3.org/2000/svg">
<path d="M58.1738 113.922C27.043 114.079 1.50488 88.2041 2.22363 56.624C2.89745 26.5264 27.8516 1.59472 58.915 1.95409C89.5967 2.31347 114.933 27.874 114.124 59.4541C113.36 89.417 88.6533 114.057 58.1738 113.922ZM9.02929 57.9941C9.27636 86.1377 32.0293 107.768 58.9375 107.363C85.0371 106.959 107.273 85.7109 107.296 57.9492C107.296 29.8281 84.3633 8.08593 57.3877 8.53515C31.2432 8.96191 9.20898 30.2549 9.02929 57.9941Z" fill="#777575"/>
<path d="M73.3574 84.3633C73.3574 83.8691 73.3574 83.4424 73.3574 82.9932C73.3574 76.9961 73.3799 71.0215 73.335 65.0244C73.335 63.9912 73.2451 62.9131 72.9981 61.9248C72.1895 58.6006 69.4941 56.9385 65.6084 57.2529C62.7334 57.4775 60.1504 60.0381 59.9482 63.0029C59.8135 64.7998 59.8584 66.5967 59.8359 68.3935C59.8135 73.2676 59.8359 78.1191 59.8359 82.9932C59.8359 83.4424 59.8359 83.8691 59.8359 84.3857C56.1973 84.3857 52.6484 84.3857 49.0322 84.3857C49.0322 72.706 49.0322 61.0039 49.0322 49.2568C52.5586 49.2568 56.085 49.2568 59.7461 49.2568C59.7461 50.6269 59.7461 52.0195 59.7461 53.7041C60.1279 53.2549 60.3525 53.0303 60.5098 52.7607C65.3613 45.4834 78.5234 46.2695 82.4316 54.8496C83.5098 57.2305 84.1611 59.7236 84.1836 62.3291C84.251 69.539 84.2285 76.7715 84.2285 84.0039C84.2285 84.1162 84.2061 84.2285 84.1611 84.4082C80.6123 84.3633 77.041 84.3633 73.3574 84.3633Z" fill="#777575"/>
<path d="M42.1143 84.4082C38.498 84.4082 34.9941 84.4082 31.4004 84.4082C31.4004 72.751 31.4004 61.1387 31.4004 49.459C34.9717 49.459 38.498 49.459 42.1143 49.459C42.1143 61.0713 42.1143 72.6836 42.1143 84.4082Z" fill="#777575"/>
<path d="M36.4316 42.4512C33.2197 42.4287 30.9736 40.0928 30.9961 36.8584C31.0185 33.624 33.3545 31.4004 36.7012 31.4228C39.8906 31.4453 42.2041 33.8037 42.1592 37.0156C42.1592 40.2051 39.7558 42.4736 36.4316 42.4512Z" fill="#777575"/>
</svg>
